<svg width="11" height="11" viewBox="0 0 11 11" fill="none" xmlns="http://www.w3.org/2000/svg">
<path d="M10.6958 5.09599C10.6958 6.52399 10.1941 7.73966 9.19079 8.74299C8.18746 9.74633 6.97179 10.248 5.54379 10.248C4.11579 10.248 2.89779 9.74633 1.88979 8.74299C0.881793 7.73966 0.377793 6.52399 0.377793 5.09599C0.377793 3.81733 0.821126 2.66933 1.70779 1.65199L-0.000206992 1.07799L4.05979 -6.4373e-06L2.92579 4.19999C2.74846 3.30399 2.58979 2.68333 2.44979 2.33799C1.74979 3.13133 1.39979 4.05533 1.39979 5.10999C1.39979 6.24866 1.80346 7.22166 2.61079 8.02899C3.41813 8.83633 4.39579 9.23999 5.54379 9.23999C6.69179 9.23999 7.66946 8.83633 8.47679 8.02899C9.28413 7.22166 9.68779 6.24399 9.68779 5.09599C9.68779 3.99466 9.23979 2.97266 8.34379 2.02999L9.08579 1.31599C10.1591 2.46399 10.6958 3.72399 10.6958 5.09599Z" fill="#131316"/>
</svg>
