<svg width="11" height="9" viewBox="0 0 11 9" fill="none" xmlns="http://www.w3.org/2000/svg">
<path d="M0 2.05797V2.75797H8.568C8.12 3.20597 7.686 3.93397 7.35 4.75997H7.896C9.422 3.23397 9.73 2.99597 10.598 2.60397V2.18397C9.744 1.74997 9.142 1.25997 7.896 -3.05176e-05H7.35C7.756 0.97997 8.078 1.52597 8.568 2.05797H0ZM10.598 5.57197H2.03C2.534 5.01197 2.884 4.43797 3.248 3.51397H2.702C1.442 4.78797 0.854 5.26397 0 5.69797V6.11797C0.896 6.50997 1.064 6.64997 2.702 8.27397H3.248C2.912 7.41997 2.478 6.73397 2.03 6.27197H10.598V5.57197Z" fill="white"/>
</svg>
