<svg width="11" height="11" viewBox="0 0 11 11" fill="none" xmlns="http://www.w3.org/2000/svg">
<path d="M10.6958 1.07799L8.98779 1.65199C9.86513 2.67866 10.3038 3.82666 10.3038 5.09599C10.3038 6.52399 9.80446 7.73966 8.80579 8.74299C7.80713 9.74633 6.59379 10.248 5.16579 10.248C3.73779 10.248 2.51979 9.74633 1.51179 8.74299C0.503793 7.73966 -0.000206992 6.52399 -0.000206992 5.09599C-0.000206992 3.72399 0.545793 2.46399 1.63779 1.31599L2.33779 2.02999C1.46046 2.98199 1.02179 4.00399 1.02179 5.09599C1.02179 6.24399 1.42313 7.22166 2.22579 8.02899C3.02846 8.83633 4.00846 9.23999 5.16579 9.23999C6.30446 9.23999 7.27746 8.83633 8.08479 8.02899C8.89213 7.22166 9.29579 6.24866 9.29579 5.10999C9.29579 4.66199 9.20013 4.16033 9.00879 3.60499C8.81746 3.04966 8.57713 2.62733 8.28779 2.33799L7.71379 4.04599L6.63579 -6.4373e-06L10.6958 1.07799Z" fill="#131316"/>
</svg>
