<svg width="20" height="20" viewBox="0 0 20 20" fill="none" xmlns="http://www.w3.org/2000/svg">
<path d="M7 17V11C7 9.89617 6.10383 9 5 9H3C1.89617 9 1 9.89617 1 11V17C1 18.1038 1.89617 19 3 19H5C6.10383 19 7 18.1038 7 17V17M7 17V7C7 5.89617 7.89617 5 9 5H11C12.1038 5 13 5.89617 13 7V17M7 17C7 18.1038 7.89617 19 9 19H11C12.1038 19 13 18.1038 13 17M13 17V3C13 1.89617 13.8962 1 15 1H17C18.1038 1 19 1.89617 19 3V17C19 18.1038 18.1038 19 17 19H15C13.8962 19 13 18.1038 13 17H7" stroke="#45F0DF" stroke-width="2" stroke-linecap="round" stroke-linejoin="round"/>
</svg>
